<?xml version="1.0" encoding="utf-8"?>
<svg viewBox="543.6000366210938 144 235.800048828125 235.89999389648438" width="235.800048828125" height="235.89999389648438" xmlns="http://www.w3.org/2000/svg"><g transform="matrix(1, 0, 0, 1, 0, 0)"><g transform="matrix(1, 0, 0, 1, 5.4569682106375694e-12, 1.3642420526593924e-12)">
				<g>
					<path class="st1" d="M592.4,379.9c-27,0-48.8-21.9-48.8-48.8V192.8c0-27,21.9-48.8,48.8-48.8h138.2c27,0,48.8,21.9,48.8,48.8&#10;&#9;&#9;&#9;&#9;&#9;&#9;V331c0,27-21.9,48.8-48.8,48.8H592.4z" style="fill: rgb(186, 32, 37);"/>
				</g>
			</g><g transform="matrix(1, 0, 0, 1, 7.219114195322618e-12, 1.8189894035458565e-12)">
					<g>
						<path class="st1" d="M730.6,378H592.4c-25.9,0-46.9-21.1-46.9-46.9V192.8c0-25.9,21.1-46.9,46.9-46.9h138.2&#10;&#9;&#9;&#9;&#9;&#9;&#9;&#9;c25.9,0,46.9,21.1,46.9,46.9V331C777.5,356.9,756.5,378,730.6,378z M592.4,149.7c-23.8,0-43.2,19.4-43.2,43.2V331&#10;&#9;&#9;&#9;&#9;&#9;&#9;&#9;c0,23.8,19.4,43.2,43.2,43.2h138.2c23.8,0,43.2-19.4,43.2-43.2V192.8c0-23.8-19.4-43.2-43.2-43.2H592.4z" style="fill: rgb(186, 32, 37);"/>
					</g>
				</g><g transform="matrix(1, 0, 0, 1, 7.219114195322618e-12, 1.8189894035458565e-12)">
					<path class="st2" d="M592.4,361.5c-16.8,0-30.5-13.7-30.5-30.5V192.8c0-16.8,13.7-30.5,30.5-30.5h138.2&#10;&#9;&#9;&#9;&#9;&#9;&#9;c16.8,0,30.5,13.7,30.5,30.5V331c0,16.8-13.7,30.5-30.5,30.5H592.4z" style="fill: rgb(255, 255, 255);"/>
				</g><g transform="matrix(1, 0, 0, 1, 7.219114195322618e-12, 1.8189894035458565e-12)">
					<path class="st3" d="M730.6,162.3H592.4c-16.8,0-30.5,13.7-30.5,30.5v5.7c0-16.8,13.7-30.5,30.5-30.5h138.2&#10;&#9;&#9;&#9;&#9;&#9;&#9;c16.8,0,30.5,13.7,30.5,30.5v-5.7C761.1,176,747.4,162.3,730.6,162.3z" style="fill: rgb(209, 211, 212);"/>
				</g><path class="st3" d="M592.4,361.5h138.2c16.8,0,30.5-13.7,30.5-30.5v-5.7c0,16.8-13.7,30.5-30.5,30.5H592.4&#10;&#9;&#9;&#9;&#9;&#9;c-16.8,0-30.5-13.7-30.5-30.5v5.7C561.9,347.9,575.5,361.5,592.4,361.5z" style="fill: rgb(209, 211, 212);" transform="matrix(1, 0, 0, 1, 7.219114195322618e-12, 1.8189894035458565e-12)"/><g transform="matrix(1, 0, 0, 1, 5.4569682106375694e-12, 1.3642420526593924e-12)">
				<path class="st1" d="M630,308.3c-2.7,0-5.4-1-7.5-3.1c-4.1-4.1-4.1-10.9,0-15l65.9-65.9c4.1-4.1,10.9-4.1,15,0&#10;&#9;&#9;&#9;&#9;&#9;c4.1,4.1,4.1,10.9,0,15l-65.9,65.9C635.4,307.2,632.7,308.3,630,308.3z" style="fill: rgb(186, 32, 37);"/>
			</g><path class="st1" d="M695.8,308.3c-2.7,0-5.4-1-7.5-3.1l-65.9-65.9c-4.1-4.1-4.1-10.9,0-15c4.1-4.1,10.9-4.1,15,0l65.9,65.9&#10;&#9;&#9;&#9;&#9;&#9;c4.1,4.1,4.1,10.9,0,15C701.3,307.2,698.5,308.3,695.8,308.3z" style="fill: rgb(186, 32, 37);" transform="matrix(1, 0, 0, 1, 7.219114195322618e-12, 1.8189894035458565e-12)"/></g></svg>